# ProBuilder 5.0.4
# https://unity3d.com/unity/features/worldbuilding/probuilder
# 24.6.2022. 16:36:03

mtllib ./River.mtl
o River

g Plane
v 202.0172 0.6017982 -7.750944E-05
v 202.0172 -25.75026 81.40302
v -1.606498 -14.10773 -0.0001721403
v -4.880334 -25.75026 81.40301
v 202.0172 -50.32089 162.7986
v -4.880281 -50.3209 162.7986
v 202.0173 -70.94655 244.2016
v -4.880208 -70.94655 244.2016
v 202.0173 -82.50214 325.6046
v -4.880185 -82.50214 325.6046
v 138.3359 -80.53699 407.0002
v -68.56158 -80.53698 407.0002
v 147.0443 -80.53697 537.8469
v -59.85325 -80.53697 537.8469

vt -201.5355 4.287877
vt -199.6368 89.82903
vt 2.618801 4.287776
vt 6.722986 85.2486
vt -202.0172 85.37128
vt -202.0172 170.3946
vt 4.880334 85.37128
vt 4.880282 170.3946
vt -202.0172 170.1713
vt -202.0173 254.1466
vt 4.880284 170.1712
vt 4.880211 254.1466
vt -202.0173 251.7489
vt -202.0173 333.968
vt 4.880207 251.7489
vt 4.880184 333.968
vt -202.0173 323.5185
vt -138.3359 404.9378
vt 4.880184 323.5184
vt 68.56158 404.9378
vt -138.3359 407.0002
vt -147.0443 537.8469
vt 68.56158 407.0002
vt 59.85325 537.8469

vn -0.0685657 0.9491516 0.3072622
vn -0.03428285 0.969539 0.2244223
vn -5.220881E-09 0.9899265 0.1415823
vn -1.065646E-08 0.957333 0.288987
vn -5.385992E-08 0.9693673 0.2456158
vn 1.036535E-08 0.9900741 0.1405463
vn 3.56012E-09 0.9997087 -0.02413624
vn 3.687524E-08 1 -1.1907E-07

usemtl Rivver_Effect
f 3/3/2 4/4/3 2/2/2 1/1/1
f 4/7/4 6/8/4 5/6/4 2/5/4
f 6/11/5 8/12/5 7/10/5 5/9/5
f 8/15/6 10/16/6 9/14/6 7/13/6
f 10/19/7 12/20/7 11/18/7 9/17/7
f 12/23/8 14/24/8 13/22/8 11/21/8

